# xmcd
#
# Track frame offsets:
#	150
#	14702
#	26523
#	44795
#	61638
#	77984
#	89658
#	99026
#	135019
#	153991
#	166178
#	180042
#	192895
#	203218
#	217207
#	233870
#	258236
#
# Disc length: 3603 seconds
#
# Revision: 3
# Processed by: cddbd v1.5.2PL0 Copyright (c) Steve Scherf et al.
# Submitted via: EasyCDDAExtractor 2010.6.0.0
#
DISCID=d80e1111
DTITLE=Krzysztof Pyszko and Robert Sitek - Jak wielkimś Ty
DYEAR=1900
DGENRE=
TTITLE0=Wielki Świat
TTITLE1=On Jest Z Tobą
TTITLE2=Czy On Wie
TTITLE3=Jak Morska Fala
TTITLE4=Łaska Znalazła Mnie
TTITLE5=Któży Oczekują Pana
TTITLE6=Bóg Jest Moją Oazą
TTITLE7=Jak Wielkimś Ty
TTITLE8=Słabym Ja
TTITLE9=Na Zew Zbawcy
TTITLE10=W Więzieniu Tam
TTITLE11=Jezu Potrzebujemy Ciebie
TTITLE12=Pozwól Iść Z Tobą Jezu
TTITLE13=Panie Jeszcze Dziś
TTITLE14=Ten Świat Swym Urokiem
TTITLE15=Tak Ja Wiem
TTITLE16=Są Na Świecie Ludzie
EXTD=
EXTT0=
EXTT1=
EXTT2=
EXTT3=
EXTT4=
EXTT5=
EXTT6=
EXTT7=
EXTT8=
EXTT9=
EXTT10=
EXTT11=
EXTT12=
EXTT13=
EXTT14=
EXTT15=
EXTT16=
PLAYORDER=
